<svg width="18" height="18" viewBox="0 0 18 18" fill="none" xmlns="http://www.w3.org/2000/svg">
<path d="M9 0.25C6.68807 0.278052 4.47873 1.20893 2.84383 2.84383C1.20893 4.47873 0.278052 6.68807 0.25 9C0.278052 11.3119 1.20893 13.5213 2.84383 15.1562C4.47873 16.7911 6.68807 17.7219 9 17.75C11.3119 17.7219 13.5213 16.7911 15.1562 15.1562C16.7911 13.5213 17.7219 11.3119 17.75 9C17.7219 6.68807 16.7911 4.47873 15.1562 2.84383C13.5213 1.20893 11.3119 0.278052 9 0.25ZM14 9.625H9.625V14H8.375V9.625H4V8.375H8.375V4H9.625V8.375H14V9.625Z" fill="#E55771"/>
</svg>
